<svg width="861" height="290" viewBox="0 0 861 290" fill="none" xmlns="http://www.w3.org/2000/svg">
<path d="M60.75 53.7C67.55 53.7 73.1 54.65 77.4 56.55C81.7 58.45 85.55 60.75 88.95 63.45C90.15 64.35 91.15 64.8 91.95 64.8C93.85 64.8 95.1 61.8 95.7 55.8H99.15C98.95 59.7 98.8 64.45 98.7 70.05C98.6 75.55 98.55 82.9 98.55 92.1H95.1C94.4 86.1 93.3 80.9 91.8 76.5C90.4 72 87.75 68.15 83.85 64.95C81.45 62.65 78.45 60.85 74.85 59.55C71.35 58.25 67.8 57.6 64.2 57.6C58.7 57.6 54 59.05 50.1 61.95C46.2 64.75 43 68.6 40.5 73.5C38 78.4 36.15 83.95 34.95 90.15C33.75 96.25 33.15 102.6 33.15 109.2C33.15 127.2 35.6 140.35 40.5 148.65C45.5 156.95 52.65 161.1 61.95 161.1C64.35 161.1 66.45 160.8 68.25 160.2C70.05 159.6 71.5 158.9 72.6 158.1C74 157.1 74.95 156.05 75.45 154.95C75.95 153.75 76.2 152.2 76.2 150.3V135.6C76.2 131 75.8 127.6 75 125.4C74.3 123.1 72.85 121.55 70.65 120.75C68.45 119.95 65.25 119.5 61.05 119.4V116.4C63.15 116.5 65.65 116.6 68.55 116.7C71.55 116.7 74.65 116.75 77.85 116.85C81.05 116.85 84 116.85 86.7 116.85C90.9 116.85 94.75 116.8 98.25 116.7C101.75 116.6 104.6 116.5 106.8 116.4V119.4C104.9 119.5 103.45 119.85 102.45 120.45C101.55 121.05 100.9 122.25 100.5 124.05C100.2 125.85 100.05 128.6 100.05 132.3V162H97.05C96.95 160.3 96.55 158.45 95.85 156.45C95.25 154.45 94.2 153.45 92.7 153.45C92 153.45 91.05 153.65 89.85 154.05C88.75 154.35 87 155.2 84.6 156.6C80.9 158.7 77 160.5 72.9 162C68.8 163.4 64.5 164.1 60 164.1C48.4 164.1 38.6 161.95 30.6 157.65C22.6 153.35 16.55 147.2 12.45 139.2C8.45 131.1 6.45 121.4 6.45 110.1C6.45 98.7 8.75 88.8 13.35 80.4C18.05 72 24.45 65.45 32.55 60.75C40.75 56.05 50.15 53.7 60.75 53.7ZM115.403 55.8C117.903 55.9 121.253 56 125.453 56.1C129.753 56.2 134.003 56.25 138.203 56.25C143.003 56.25 147.653 56.2 152.153 56.1C156.653 56 159.853 55.95 161.753 55.95C171.053 55.95 178.753 57 184.853 59.1C191.053 61.1 195.653 64.05 198.653 67.95C201.753 71.85 203.303 76.55 203.303 82.05C203.303 85.45 202.603 88.9 201.203 92.4C199.803 95.8 197.403 99 194.003 102C190.703 104.9 186.153 107.25 180.353 109.05C174.553 110.75 167.253 111.6 158.453 111.6H144.053V108.6H156.953C162.853 108.6 167.303 107.5 170.303 105.3C173.403 103 175.503 100 176.603 96.3C177.803 92.5 178.403 88.3 178.403 83.7C178.403 75.8 177.003 69.7 174.203 65.4C171.403 61 166.603 58.8 159.803 58.8C155.903 58.8 153.353 59.65 152.153 61.35C151.053 63.05 150.503 66.5 150.503 71.7V146.1C150.503 149.7 150.753 152.4 151.253 154.2C151.853 156 152.953 157.2 154.553 157.8C156.153 158.4 158.553 158.8 161.753 159V162C159.053 161.8 155.653 161.7 151.553 161.7C147.453 161.6 143.303 161.55 139.103 161.55C134.303 161.55 129.753 161.6 125.453 161.7C121.253 161.7 117.903 161.8 115.403 162V159C118.603 158.8 121.003 158.4 122.603 157.8C124.203 157.2 125.253 156 125.753 154.2C126.353 152.4 126.653 149.7 126.653 146.1V71.7C126.653 68 126.353 65.3 125.753 63.6C125.253 61.8 124.153 60.6 122.453 60C120.853 59.3 118.503 58.9 115.403 58.8V55.8ZM143.753 109.05C148.053 109.15 151.753 109.35 154.853 109.65C158.053 109.95 160.853 110.25 163.253 110.55C165.653 110.75 167.803 110.9 169.703 111C178.803 111.8 185.503 113.75 189.803 116.85C194.203 119.95 197.053 124.6 198.353 130.8L201.803 146.25C202.703 150.25 203.653 153.05 204.653 154.65C205.653 156.25 207.103 157.05 209.003 157.05C210.303 156.95 211.353 156.65 212.153 156.15C213.053 155.55 214.003 154.7 215.003 153.6L217.103 155.4C214.403 158.5 211.503 160.7 208.403 162C205.303 163.4 201.553 164.1 197.153 164.1C191.753 164.1 187.303 162.95 183.803 160.65C180.303 158.35 178.003 154.1 176.903 147.9L174.203 132.9C173.503 128.7 172.653 125.05 171.653 121.95C170.653 118.75 169.253 116.25 167.453 114.45C165.753 112.55 163.353 111.6 160.253 111.6H144.053L143.753 109.05ZM296.899 55.5L333.349 149.4C334.749 153 336.299 155.5 337.999 156.9C339.799 158.2 341.399 158.9 342.799 159V162C339.799 161.8 336.249 161.7 332.149 161.7C328.149 161.6 324.099 161.55 319.999 161.55C315.399 161.55 311.049 161.6 306.949 161.7C302.849 161.7 299.599 161.8 297.199 162V159C302.299 158.8 305.499 157.95 306.799 156.45C308.199 154.85 307.899 151.5 305.899 146.4L280.399 76.65L283.099 72.75L260.299 132.15C258.099 137.65 256.749 142.15 256.249 145.65C255.849 149.15 256.099 151.85 256.999 153.75C257.999 155.65 259.549 157 261.649 157.8C263.849 158.5 266.449 158.9 269.449 159V162C266.149 161.8 262.999 161.7 259.999 161.7C256.999 161.6 253.949 161.55 250.849 161.55C248.649 161.55 246.549 161.6 244.549 161.7C242.649 161.7 240.949 161.8 239.449 162V159C241.549 158.6 243.699 157.25 245.899 154.95C248.099 152.65 250.249 148.75 252.349 143.25L286.549 55.5C288.149 55.6 289.849 55.65 291.649 55.65C293.549 55.65 295.299 55.6 296.899 55.5ZM307.399 118.8V121.8H262.699L264.199 118.8H307.399ZM399.798 82.35C403.998 82.35 407.398 82.9 409.998 84C412.598 85 414.698 86.4 416.298 88.2C417.898 90.1 419.048 92.6 419.748 95.7C420.448 98.7 420.798 102.7 420.798 107.7V148.05C420.798 152.25 421.448 155.1 422.748 156.6C424.048 158.1 426.298 158.85 429.498 158.85V162C427.698 161.9 424.948 161.8 421.248 161.7C417.648 161.5 414.098 161.4 410.598 161.4C406.998 161.4 403.448 161.5 399.948 161.7C396.448 161.8 393.798 161.9 391.998 162V158.85C394.698 158.85 396.548 158.1 397.548 156.6C398.648 155.1 399.198 152.25 399.198 148.05V101.4C399.198 98.9 398.998 96.75 398.598 94.95C398.198 93.05 397.398 91.6 396.198 90.6C395.098 89.5 393.398 88.95 391.098 88.95C388.498 88.95 386.098 89.7 383.898 91.2C381.698 92.7 379.898 94.8 378.498 97.5C377.198 100.1 376.548 103.05 376.548 106.35V148.05C376.548 152.25 377.098 155.1 378.198 156.6C379.298 158.1 381.148 158.85 383.748 158.85V162C382.148 161.9 379.648 161.8 376.248 161.7C372.948 161.5 369.548 161.4 366.048 161.4C362.248 161.4 358.348 161.5 354.348 161.7C350.348 161.8 347.348 161.9 345.348 162V158.85C348.848 158.85 351.298 158.1 352.698 156.6C354.198 155.1 354.948 152.25 354.948 148.05V100.8C354.948 96.3 354.248 93 352.848 90.9C351.548 88.7 349.048 87.6 345.348 87.6V84.45C348.548 84.75 351.648 84.9 354.648 84.9C358.848 84.9 362.748 84.75 366.348 84.45C370.048 84.05 373.448 83.5 376.548 82.8V96.3C378.948 91.3 382.198 87.75 386.298 85.65C390.398 83.45 394.898 82.35 399.798 82.35ZM444.948 82.35C449.148 82.35 452.548 82.9 455.148 84C457.748 85 459.848 86.4 461.448 88.2C463.048 90.1 464.198 92.6 464.898 95.7C465.598 98.7 465.948 102.7 465.948 107.7V148.05C465.948 152.25 466.648 155.1 468.048 156.6C469.548 158.1 472.048 158.85 475.548 158.85V162C473.648 161.9 470.798 161.8 466.998 161.7C463.198 161.5 459.448 161.4 455.748 161.4C452.148 161.4 448.598 161.5 445.098 161.7C441.598 161.8 438.948 161.9 437.148 162V158.85C439.848 158.85 441.698 158.1 442.698 156.6C443.798 155.1 444.348 152.25 444.348 148.05V101.4C444.348 98.9 444.098 96.75 443.598 94.95C443.198 93.05 442.348 91.6 441.048 90.6C439.848 89.5 437.948 88.95 435.348 88.95C432.748 88.95 430.348 89.75 428.148 91.35C425.948 92.95 424.148 95.1 422.748 97.8C421.448 100.5 420.748 103.5 420.648 106.8L419.898 97.65C422.598 91.65 426.148 87.6 430.548 85.5C435.048 83.4 439.848 82.35 444.948 82.35ZM532.739 82.35C535.939 82.35 538.539 83.05 540.539 84.45C542.539 85.75 543.989 87.45 544.889 89.55C545.889 91.65 546.389 93.85 546.389 96.15C546.389 99.85 545.289 102.9 543.089 105.3C540.989 107.6 538.189 108.75 534.689 108.75C531.189 108.75 528.439 107.9 526.439 106.2C524.539 104.4 523.589 102.05 523.589 99.15C523.589 96.35 524.189 94.05 525.389 92.25C526.689 90.35 528.289 88.75 530.189 87.45C528.789 87.05 527.389 87.1 525.989 87.6C524.089 87.9 522.289 88.7 520.589 90C518.889 91.2 517.439 92.75 516.239 94.65C515.039 96.45 514.089 98.45 513.389 100.65C512.689 102.75 512.339 104.8 512.339 106.8V146.55C512.339 151.35 513.489 154.6 515.789 156.3C518.189 158 521.739 158.85 526.439 158.85V162C524.139 161.9 520.789 161.8 516.389 161.7C511.989 161.5 507.389 161.4 502.589 161.4C498.589 161.4 494.539 161.5 490.439 161.7C486.339 161.8 483.239 161.9 481.139 162V158.85C484.639 158.85 487.089 158.1 488.489 156.6C489.989 155.1 490.739 152.25 490.739 148.05V100.8C490.739 96.3 490.039 93 488.639 90.9C487.339 88.7 484.839 87.6 481.139 87.6V84.45C484.339 84.75 487.439 84.9 490.439 84.9C494.639 84.9 498.539 84.75 502.139 84.45C505.839 84.05 509.239 83.5 512.339 82.8V96.75C513.539 94.05 515.139 91.6 517.139 89.4C519.139 87.2 521.439 85.5 524.039 84.3C526.639 83 529.539 82.35 532.739 82.35ZM625.859 82.8V145.65C625.859 150.15 626.559 153.5 627.959 155.7C629.359 157.8 631.859 158.85 635.459 158.85V162C632.359 161.7 629.259 161.55 626.159 161.55C621.959 161.55 618.059 161.7 614.459 162C610.859 162.3 607.459 162.85 604.259 163.65V150.15C601.859 155.15 598.509 158.75 594.209 160.95C590.009 163.05 585.309 164.1 580.109 164.1C575.909 164.1 572.509 163.55 569.909 162.45C567.309 161.35 565.259 159.95 563.759 158.25C562.059 156.35 560.859 153.85 560.159 150.75C559.459 147.65 559.109 143.65 559.109 138.75V100.8C559.109 96.3 558.409 93 557.009 90.9C555.709 88.7 553.209 87.6 549.509 87.6V84.45C552.709 84.75 555.809 84.9 558.809 84.9C563.009 84.9 566.909 84.75 570.509 84.45C574.209 84.05 577.609 83.5 580.709 82.8V144.9C580.709 147.4 580.909 149.6 581.309 151.5C581.809 153.4 582.709 154.9 584.009 156C585.309 157 587.209 157.5 589.709 157.5C592.409 157.5 594.809 156.75 596.909 155.25C599.109 153.75 600.859 151.7 602.159 149.1C603.559 146.4 604.259 143.4 604.259 140.1V100.8C604.259 96.3 603.559 93 602.159 90.9C600.859 88.7 598.359 87.6 594.659 87.6V84.45C597.859 84.75 600.959 84.9 603.959 84.9C608.159 84.9 612.059 84.75 615.659 84.45C619.359 84.05 622.759 83.5 625.859 82.8ZM672.575 59.85V84.45H690.275V87.45H672.575V148.05C672.575 151.05 673.125 153.2 674.225 154.5C675.325 155.7 676.975 156.3 679.175 156.3C680.975 156.3 682.775 155.65 684.575 154.35C686.375 152.95 687.975 150.6 689.375 147.3L691.925 148.65C690.325 153.15 687.875 156.85 684.575 159.75C681.375 162.65 676.975 164.1 671.375 164.1C668.075 164.1 665.175 163.65 662.675 162.75C660.175 161.95 658.075 160.7 656.375 159C654.175 156.8 652.725 154.1 652.025 150.9C651.325 147.6 650.975 143.35 650.975 138.15V87.45H638.375V84.45H650.975V64.65C655.175 64.65 659.025 64.3 662.525 63.6C666.125 62.8 669.475 61.55 672.575 59.85ZM725.31 44.7V96.3C727.81 91.1 731.16 87.5 735.36 85.5C739.66 83.4 744.46 82.35 749.76 82.35C754.06 82.35 757.51 82.9 760.11 84C762.71 85 764.76 86.4 766.26 88.2C767.96 90.1 769.16 92.55 769.86 95.55C770.66 98.55 771.06 102.6 771.06 107.7V148.05C771.06 152.25 771.76 155.1 773.16 156.6C774.66 158.1 777.16 158.85 780.66 158.85V162C778.76 161.9 775.86 161.8 771.96 161.7C768.16 161.5 764.46 161.4 760.86 161.4C756.96 161.4 753.16 161.5 749.46 161.7C745.86 161.8 743.16 161.9 741.36 162V158.85C744.36 158.85 746.46 158.1 747.66 156.6C748.86 155.1 749.46 152.25 749.46 148.05V101.4C749.46 98.9 749.21 96.75 748.71 94.95C748.21 93.05 747.26 91.6 745.86 90.6C744.56 89.5 742.66 88.95 740.16 88.95C737.46 88.95 734.96 89.7 732.66 91.2C730.46 92.6 728.66 94.6 727.26 97.2C725.96 99.8 725.31 102.8 725.31 106.2V148.05C725.31 152.25 725.91 155.1 727.11 156.6C728.31 158.1 730.41 158.85 733.41 158.85V162C731.61 161.9 728.96 161.8 725.46 161.7C721.96 161.5 718.41 161.4 714.81 161.4C710.91 161.4 706.96 161.5 702.96 161.7C699.06 161.8 696.11 161.9 694.11 162V158.85C697.61 158.85 700.06 158.1 701.46 156.6C702.96 155.1 703.71 152.25 703.71 148.05V62.7C703.71 58.2 703.01 54.9 701.61 52.8C700.31 50.6 697.81 49.5 694.11 49.5V46.35C697.31 46.65 700.41 46.8 703.41 46.8C707.51 46.8 711.41 46.65 715.11 46.35C718.81 45.95 722.21 45.4 725.31 44.7ZM806.82 163.05C802.32 163.05 798.57 162.2 795.57 160.5C792.57 158.8 790.37 156.55 788.97 153.75C787.57 150.85 786.87 147.7 786.87 144.3C786.87 140 787.82 136.5 789.72 133.8C791.72 131.1 794.27 128.9 797.37 127.2C800.47 125.5 803.72 124.1 807.12 123C810.62 121.9 813.92 120.85 817.02 119.85C820.22 118.75 822.77 117.5 824.67 116.1C826.67 114.6 827.67 112.7 827.67 110.4V98.7C827.67 96.1 827.22 93.8 826.32 91.8C825.52 89.7 824.22 88.1 822.42 87C820.72 85.9 818.47 85.35 815.67 85.35C813.67 85.35 811.67 85.65 809.67 86.25C807.67 86.75 806.02 87.65 804.72 88.95C807.52 89.95 809.67 91.5 811.17 93.6C812.77 95.6 813.57 97.9 813.57 100.5C813.57 103.9 812.37 106.6 809.97 108.6C807.67 110.6 804.92 111.6 801.72 111.6C798.12 111.6 795.37 110.5 793.47 108.3C791.67 106 790.77 103.25 790.77 100.05C790.77 97.15 791.47 94.75 792.87 92.85C794.37 90.95 796.42 89.15 799.02 87.45C801.82 85.85 805.17 84.6 809.07 83.7C813.07 82.8 817.37 82.35 821.97 82.35C826.57 82.35 830.72 82.85 834.42 83.85C838.12 84.75 841.22 86.45 843.72 88.95C846.02 91.25 847.52 94.1 848.22 97.5C848.92 100.8 849.27 105 849.27 110.1V150.9C849.27 153.4 849.52 155.15 850.02 156.15C850.52 157.05 851.37 157.5 852.57 157.5C853.47 157.5 854.32 157.25 855.12 156.75C856.02 156.25 856.97 155.65 857.97 154.95L859.47 157.5C857.37 159.3 854.92 160.7 852.12 161.7C849.42 162.6 846.37 163.05 842.97 163.05C839.27 163.05 836.32 162.55 834.12 161.55C831.92 160.45 830.32 159 829.32 157.2C828.42 155.4 827.97 153.3 827.97 150.9C825.57 154.7 822.67 157.7 819.27 159.9C815.87 162 811.72 163.05 806.82 163.05ZM817.47 153.45C819.47 153.45 821.27 153 822.87 152.1C824.57 151.1 826.17 149.5 827.67 147.3V116.55C826.77 118.05 825.52 119.4 823.92 120.6C822.32 121.8 820.62 123.05 818.82 124.35C817.02 125.55 815.27 126.9 813.57 128.4C811.97 129.9 810.67 131.75 809.67 133.95C808.67 136.15 808.17 138.8 808.17 141.9C808.17 145.8 809.02 148.7 810.72 150.6C812.42 152.5 814.67 153.45 817.47 153.45Z" fill="#2563EB"/>
<path d="M0 178.5H860.22V181.5H0V178.5Z" fill="#2563EB"/>
<path d="M151.975 207.725L132.25 260H124.375L104.65 207.725H111.925L128.35 252.8L144.775 207.725H151.975ZM166.284 207.725V260H159.459V207.725H166.284ZM194.491 260.525C191.041 260.525 187.941 259.925 185.191 258.725C182.491 257.475 180.366 255.775 178.816 253.625C177.266 251.425 176.466 248.9 176.416 246.05H183.691C183.941 248.5 184.941 250.575 186.691 252.275C188.491 253.925 191.091 254.75 194.491 254.75C197.741 254.75 200.291 253.95 202.141 252.35C204.041 250.7 204.991 248.6 204.991 246.05C204.991 244.05 204.441 242.425 203.341 241.175C202.241 239.925 200.866 238.975 199.216 238.325C197.566 237.675 195.341 236.975 192.541 236.225C189.091 235.325 186.316 234.425 184.216 233.525C182.166 232.625 180.391 231.225 178.891 229.325C177.441 227.375 176.716 224.775 176.716 221.525C176.716 218.675 177.441 216.15 178.891 213.95C180.341 211.75 182.366 210.05 184.966 208.85C187.616 207.65 190.641 207.05 194.041 207.05C198.941 207.05 202.941 208.275 206.041 210.725C209.191 213.175 210.966 216.425 211.366 220.475H203.866C203.616 218.475 202.566 216.725 200.716 215.225C198.866 213.675 196.416 212.9 193.366 212.9C190.516 212.9 188.191 213.65 186.391 215.15C184.591 216.6 183.691 218.65 183.691 221.3C183.691 223.2 184.216 224.75 185.266 225.95C186.366 227.15 187.691 228.075 189.241 228.725C190.841 229.325 193.066 230.025 195.916 230.825C199.366 231.775 202.141 232.725 204.241 233.675C206.341 234.575 208.141 236 209.641 237.95C211.141 239.85 211.891 242.45 211.891 245.75C211.891 248.3 211.216 250.7 209.866 252.95C208.516 255.2 206.516 257.025 203.866 258.425C201.216 259.825 198.091 260.525 194.491 260.525ZM228.609 207.725V240.8C228.609 245.45 229.734 248.9 231.984 251.15C234.284 253.4 237.459 254.525 241.509 254.525C245.509 254.525 248.634 253.4 250.884 251.15C253.184 248.9 254.334 245.45 254.334 240.8V207.725H261.159V240.725C261.159 245.075 260.284 248.75 258.534 251.75C256.784 254.7 254.409 256.9 251.409 258.35C248.459 259.8 245.134 260.525 241.434 260.525C237.734 260.525 234.384 259.8 231.384 258.35C228.434 256.9 226.084 254.7 224.334 251.75C222.634 248.75 221.784 245.075 221.784 240.725V207.725H228.609ZM303.445 248.375H280.645L276.445 260H269.245L288.145 208.025H296.02L314.845 260H307.645L303.445 248.375ZM301.495 242.825L292.045 216.425L282.595 242.825H301.495ZM329.907 254.45H348.207V260H323.082V207.725H329.907V254.45ZM391.725 207.725C397.425 207.725 402.35 208.8 406.5 210.95C410.7 213.05 413.9 216.075 416.1 220.025C418.35 223.975 419.475 228.625 419.475 233.975C419.475 239.325 418.35 243.975 416.1 247.925C413.9 251.825 410.7 254.825 406.5 256.925C402.35 258.975 397.425 260 391.725 260H375.45V207.725H391.725ZM391.725 254.375C398.475 254.375 403.625 252.6 407.175 249.05C410.725 245.45 412.5 240.425 412.5 233.975C412.5 227.475 410.7 222.4 407.1 218.75C403.55 215.1 398.425 213.275 391.725 213.275H382.275V254.375H391.725ZM435.302 213.275V230.75H454.352V236.375H435.302V254.375H456.602V260H428.477V207.65H456.602V213.275H435.302ZM483.504 260.525C480.054 260.525 476.954 259.925 474.204 258.725C471.504 257.475 469.379 255.775 467.829 253.625C466.279 251.425 465.479 248.9 465.429 246.05H472.704C472.954 248.5 473.954 250.575 475.704 252.275C477.504 253.925 480.104 254.75 483.504 254.75C486.754 254.75 489.304 253.95 491.154 252.35C493.054 250.7 494.004 248.6 494.004 246.05C494.004 244.05 493.454 242.425 492.354 241.175C491.254 239.925 489.879 238.975 488.229 238.325C486.579 237.675 484.354 236.975 481.554 236.225C478.104 235.325 475.329 234.425 473.229 233.525C471.179 232.625 469.404 231.225 467.904 229.325C466.454 227.375 465.729 224.775 465.729 221.525C465.729 218.675 466.454 216.15 467.904 213.95C469.354 211.75 471.379 210.05 473.979 208.85C476.629 207.65 479.654 207.05 483.054 207.05C487.954 207.05 491.954 208.275 495.054 210.725C498.204 213.175 499.979 216.425 500.379 220.475H492.879C492.629 218.475 491.579 216.725 489.729 215.225C487.879 213.675 485.429 212.9 482.379 212.9C479.529 212.9 477.204 213.65 475.404 215.15C473.604 216.6 472.704 218.65 472.704 221.3C472.704 223.2 473.229 224.75 474.279 225.95C475.379 227.15 476.704 228.075 478.254 228.725C479.854 229.325 482.079 230.025 484.929 230.825C488.379 231.775 491.154 232.725 493.254 233.675C495.354 234.575 497.154 236 498.654 237.95C500.154 239.85 500.904 242.45 500.904 245.75C500.904 248.3 500.229 250.7 498.879 252.95C497.529 255.2 495.529 257.025 492.879 258.425C490.229 259.825 487.104 260.525 483.504 260.525ZM517.773 207.725V260H510.948V207.725H517.773ZM569.005 222.875C567.555 219.825 565.455 217.475 562.705 215.825C559.955 214.125 556.755 213.275 553.105 213.275C549.455 213.275 546.155 214.125 543.205 215.825C540.305 217.475 538.005 219.875 536.305 223.025C534.655 226.125 533.83 229.725 533.83 233.825C533.83 237.925 534.655 241.525 536.305 244.625C538.005 247.725 540.305 250.125 543.205 251.825C546.155 253.475 549.455 254.3 553.105 254.3C558.205 254.3 562.405 252.775 565.705 249.725C569.005 246.675 570.93 242.55 571.48 237.35H550.63V231.8H578.755V237.05C578.355 241.35 577.005 245.3 574.705 248.9C572.405 252.45 569.38 255.275 565.63 257.375C561.88 259.425 557.705 260.45 553.105 260.45C548.255 260.45 543.83 259.325 539.83 257.075C535.83 254.775 532.655 251.6 530.305 247.55C528.005 243.5 526.855 238.925 526.855 233.825C526.855 228.725 528.005 224.15 530.305 220.1C532.655 216 535.83 212.825 539.83 210.575C543.83 208.275 548.255 207.125 553.105 207.125C558.655 207.125 563.555 208.5 567.805 211.25C572.105 214 575.23 217.875 577.18 222.875H569.005ZM628.879 260H622.054L594.604 218.375V260H587.779V207.65H594.604L622.054 249.2V207.65H628.879V260ZM647.338 213.275V230.75H666.388V236.375H647.338V254.375H668.638V260H640.513V207.65H668.638V213.275H647.338ZM706.49 260L694.04 238.625H685.79V260H678.965V207.725H695.84C699.79 207.725 703.115 208.4 705.815 209.75C708.565 211.1 710.615 212.925 711.965 215.225C713.315 217.525 713.99 220.15 713.99 223.1C713.99 226.7 712.94 229.875 710.84 232.625C708.79 235.375 705.69 237.2 701.54 238.1L714.665 260H706.49ZM685.79 233.15H695.84C699.54 233.15 702.315 232.25 704.165 230.45C706.015 228.6 706.94 226.15 706.94 223.1C706.94 220 706.015 217.6 704.165 215.9C702.365 214.2 699.59 213.35 695.84 213.35H685.79V233.15Z" fill="#2563EB"/>
</svg>
